<?xml version="1.0" encoding="UTF-8" standalone="no"?>
<!-- Created with Inkscape (http://www.inkscape.org/) -->

<svg
   width="1920"
   height="1080"
   viewBox="0 0 507.99999 285.75001"
   version="1.1"
   id="svg5"
   inkscape:version="1.1.2 (b8e25be833, 2022-02-05)"
   sodipodi:docname="Spectre Maze Layout.svg"
   xmlns:inkscape="http://www.inkscape.org/namespaces/inkscape"
   xmlns:sodipodi="http://sodipodi.sourceforge.net/DTD/sodipodi-0.dtd"
   xmlns="http://www.w3.org/2000/svg"
   xmlns:svg="http://www.w3.org/2000/svg">
  <sodipodi:namedview
     id="namedview7"
     pagecolor="#505050"
     bordercolor="#eeeeee"
     borderopacity="1"
     inkscape:pageshadow="0"
     inkscape:pageopacity="0"
     inkscape:pagecheckerboard="0"
     inkscape:document-units="mm"
     showgrid="false"
     units="px"
     inkscape:zoom="0.52347032"
     inkscape:cx="831.94784"
     inkscape:cy="347.67969"
     inkscape:window-width="1920"
     inkscape:window-height="1017"
     inkscape:window-x="-8"
     inkscape:window-y="-8"
     inkscape:window-maximized="1"
     inkscape:current-layer="layer1" />
  <defs
     id="defs2" />
  <g
     inkscape:label="Layer 1"
     inkscape:groupmode="layer"
     id="layer1">
    <g
       id="g866"
       transform="matrix(1.2660537,0,0,1.2663772,92.53505,111.45582)">
      <g
         fill="#222222"
         stroke="#222222"
         stroke-width="0.265"
         id="g836">
        <circle
           cx="11.197"
           cy="21.407"
           r="0.26499999"
           id="circle824" />
        <circle
           cx="17.184"
           cy="21.407"
           r="0.26499999"
           id="circle826" />
        <circle
           cx="20.177"
           cy="16.223"
           r="0.26499999"
           id="circle828" />
        <circle
           cx="14.191"
           cy="8.0439997"
           r="0.26499999"
           id="circle830" />
        <circle
           cx="11.197"
           cy="5.0510001"
           r="0.26499999"
           id="circle832" />
        <circle
           cx="5.21"
           cy="13.229"
           r="0.26499999"
           id="circle834" />
      </g>
      <path
         d="m 14.086,14.459 v -2.46 h -1.988 v 2.46 h 0.503 v -2.042 h 0.978 v 2.04 z"
         fill="#222222"
         id="path838" />
      <path
         d="m 7.108,20.312 4.09,1.095 2.992,-2.993 2.994,2.993 4.089,-1.095 -1.095,-4.09 -4.09,-1.095 1.096,-4.09 -5.987,-5.986 -4.089,1.095 1.096,4.09 -2.993,2.993 2.993,2.994 z"
         fill="none"
         stroke="#222222"
         stroke-linejoin="bevel"
         stroke-width="0.265"
         id="path840" />
      <g
         fill="none"
         stroke="#222222"
         stroke-width="0.265"
         id="g846">
        <path
           d="m 3.832,12.549 -0.118,0.68 0.68,-0.119"
           id="path842" />
        <path
           d="M 11.513,3.87 5.812,5.399 7.022,9.92 3.713,13.23"
           stroke-linejoin="bevel"
           id="path844" />
      </g>
    </g>
    <g
       id="g931"
       transform="matrix(1.896333,0,0,1.8959552,83.682663,146.83369)">
      <g
         fill="#222222"
         stroke="#222222"
         stroke-width="0.265"
         id="g880">
        <circle
           cx="4.98"
           cy="14.023"
           r="0.26499999"
           id="circle868" />
        <circle
           cx="13.229"
           cy="21.959999"
           r="0.26499999"
           id="circle870" />
        <circle
           cx="21.478001"
           cy="17.198"
           r="0.26499999"
           id="circle872" />
        <circle
           cx="21.478001"
           cy="7.6729999"
           r="0.26499999"
           id="circle874" />
        <circle
           cx="13.229"
           cy="2.9100001"
           r="0.26499999"
           id="circle876" />
        <circle
           cx="7.73"
           cy="9.2600002"
           r="0.26499999"
           id="circle878" />
      </g>
      <path
         d="m 16.148,21.252 v -0.437 c 0.477,-0.037 0.649,-0.238 0.649,-0.6 v -0.72 h -0.36 v 0.688 c 0,0.188 -0.077,0.307 -0.288,0.344 v -1.032 h -0.342 v 1.032 c -0.211,-0.037 -0.29,-0.154 -0.29,-0.342 v -0.69 h -0.355 v 0.725 c 0,0.362 0.159,0.56 0.645,0.595 v 0.438 z m 1.345,0.026 V 21.13 h -0.379 c 0.003,-0.045 0.053,-0.108 0.122,-0.159 0.188,-0.132 0.254,-0.209 0.254,-0.344 0,-0.172 -0.122,-0.256 -0.299,-0.256 -0.18,0 -0.286,0.113 -0.286,0.304 h 0.167 c 0,-0.12 0.05,-0.156 0.127,-0.156 0.069,0 0.122,0.026 0.122,0.114 0,0.074 -0.037,0.119 -0.162,0.209 -0.225,0.161 -0.264,0.275 -0.264,0.436 z"
         fill="#222222"
         id="path882" />
      <path
         d="m 7.899,16.489 v -0.437 c 0.476,-0.037 0.648,-0.238 0.648,-0.6 v -0.72 h -0.36 v 0.688 c 0,0.188 -0.076,0.307 -0.288,0.344 V 14.732 H 7.558 v 1.032 C 7.346,15.727 7.266,15.61 7.266,15.423 V 14.732 H 6.912 v 0.725 c 0,0.362 0.159,0.56 0.646,0.595 v 0.437 z m 1.097,0.026 V 15.637 H 8.856 C 8.846,15.74 8.796,15.79 8.645,15.79 v 0.12 h 0.18 v 0.605 z"
         fill="#222222"
         id="path884" />
      <path
         d="M 18.898,6.964 V 6.528 c 0.476,-0.037 0.648,-0.238 0.648,-0.6 v -0.72 h -0.36 v 0.687 c 0,0.188 -0.076,0.307 -0.288,0.344 V 5.207 H 18.557 V 6.239 C 18.345,6.202 18.266,6.086 18.266,5.898 V 5.208 H 17.91 v 0.724 c 0,0.363 0.159,0.561 0.646,0.596 v 0.436 z m 1.066,-0.082 c -0.082,0 -0.124,-0.087 -0.124,-0.33 0,-0.244 0.042,-0.331 0.124,-0.331 0.085,0 0.125,0.09 0.125,0.333 0,0.238 -0.04,0.328 -0.125,0.328 z m -0.005,0.14 c 0.19,0 0.304,-0.15 0.304,-0.476 0,-0.328 -0.114,-0.463 -0.304,-0.463 -0.188,0 -0.299,0.135 -0.299,0.466 0,0.33 0.111,0.473 0.299,0.473 z"
         fill="#222222"
         id="path886" />
      <path
         d="M 13.405,6.964 V 6.718 c 0.471,-0.04 0.73,-0.254 0.73,-0.63 0,-0.376 -0.261,-0.603 -0.73,-0.648 V 5.207 H 13.059 V 5.44 c -0.474,0.042 -0.736,0.272 -0.736,0.648 0,0.373 0.26,0.587 0.736,0.627 v 0.249 z m -0.74,-0.879 c 0,-0.24 0.153,-0.373 0.394,-0.413 V 6.49 C 12.826,6.453 12.664,6.334 12.664,6.085 Z m 1.13,0.003 c 0,0.249 -0.162,0.365 -0.39,0.402 V 5.672 c 0.238,0.043 0.39,0.175 0.39,0.416 z m 0.743,0.794 c -0.082,0 -0.125,-0.088 -0.125,-0.331 0,-0.244 0.043,-0.33 0.125,-0.33 0.084,0 0.124,0.09 0.124,0.332 0,0.239 -0.04,0.329 -0.124,0.329 z m -0.006,0.14 c 0.19,0 0.305,-0.151 0.305,-0.476 0,-0.329 -0.114,-0.463 -0.305,-0.463 -0.187,0 -0.299,0.134 -0.299,0.465 0,0.33 0.112,0.474 0.3,0.474 z"
         fill="#222222"
         id="path888" />
      <path
         d="m 18.904,16.489 v -0.246 c 0.471,-0.04 0.73,-0.254 0.73,-0.63 0,-0.375 -0.261,-0.603 -0.73,-0.648 v -0.233 h -0.346 v 0.233 c -0.474,0.043 -0.736,0.273 -0.736,0.649 0,0.373 0.26,0.587 0.736,0.627 v 0.248 z m -0.74,-0.878 c 0,-0.24 0.153,-0.373 0.394,-0.413 v 0.818 C 18.325,15.979 18.163,15.86 18.163,15.611 Z m 1.13,0.003 c 0,0.248 -0.162,0.365 -0.39,0.402 v -0.818 c 0.238,0.042 0.39,0.175 0.39,0.416 z m 0.774,0.902 v -0.879 h -0.14 c -0.01,0.104 -0.06,0.154 -0.212,0.154 v 0.119 h 0.18 v 0.606 z"
         fill="#222222"
         id="path890" />
      <path
         d="m 9.862,9.969 v 1.757 h 0.359 v -1.458 h 0.876 V 9.969 Z m 5.912,0.871 -0.481,0.582 v 0.304 h 1.373 v -0.304 h -0.945 l 0.474,-0.587 -0.47,-0.567 h 0.904 V 9.97 H 15.29 v 0.28 z m -1.709,5.649 -0.62,-1.757 H 13.02 l -0.627,1.757 z m -0.839,-1.363 h 0.003 l 0.338,1.061 H 12.88 Z"
         fill="#222222"
         id="path892" />
      <path
         d="m 10.48,17.198 v -3.175 m 2.749,-1.588 -2.75,1.588 m -2.749,-1.588 2.75,1.588 m 2.75,-1.588 V 9.26 M 15.979,7.673 13.229,9.26 M 10.48,7.673 13.23,9.26 m 2.749,7.938 v -3.175 m 2.75,-1.588 -2.75,1.588 m -2.749,-1.588 2.749,1.588 m 0,3.175 2.75,1.587 m -2.75,-1.587 -2.75,1.587 M 15.979,7.673 V 4.498 m 0,3.175 2.75,1.587"
         fill="none"
         stroke="#222222"
         stroke-dasharray="0.26458, 0.79374"
         stroke-dashoffset="0.132"
         stroke-linecap="square"
         stroke-width="0.265"
         id="path894" />
      <path
         d="m 4.98,17.198 2.75,1.587 2.75,-1.587 2.749,1.587 v 3.175 l 2.75,1.588 2.75,-1.588 v -3.175 l 2.75,-1.587 v -3.175 l -2.75,-1.588 V 9.26 l 2.75,-1.587 V 4.498 l -2.75,-1.587 -2.75,1.587 -2.75,-1.587 -2.75,1.587 0.001,3.175 -2.75,1.588 v 3.174 l -2.75,1.588 z"
         fill="none"
         stroke="#222222"
         stroke-linejoin="bevel"
         stroke-width="0.265"
         id="path896" />
      <path
         d="M 8.814,9.092 8.524,9.718 9.211,9.78 M 10.479,8.59 8.523,9.718 m 8.54,4.136 -0.29,0.626 0.687,0.062 m 1.268,-1.191 -1.956,1.13 m -3.146,-3.069 0.397,0.564 0.396,-0.564 M 14.022,9.718 v 2.259 M 16.375,6.65 16.772,7.215 17.169,6.65 M 16.772,4.957 V 7.215 M 12.54,8.404 13.228,8.343 12.938,7.717 m -1.665,-0.503 1.956,1.13 m -3.147,6.702 -0.397,-0.565 -0.397,0.565 m 0.397,1.694 v -2.26 m 4.231,-1.19 -0.688,0.06 0.291,0.627 m 1.665,0.503 -1.956,-1.13 m 3.438,4.702 -0.688,0.062 0.29,0.626 m 1.666,0.503 -1.956,-1.13"
         fill="none"
         stroke="#222222"
         stroke-width="0.265"
         id="path898" />
      <g
         fill="none"
         stroke="#222222"
         stroke-width="0.265"
         id="g904">
        <path
           d="M 7.333,9.366 6.936,8.802 6.539,9.366"
           id="path900" />
        <path
           d="m 4.186,13.564 2.75,-1.588 V 8.802"
           stroke-linejoin="bevel"
           id="path902" />
      </g>
    </g>
    <g
       id="g975"
       transform="matrix(1.2660537,0,0,1.2663772,92.53505,189.52402)">
      <g
         fill="#222222"
         stroke="#222222"
         stroke-width="0.265"
         id="g945">
        <circle
           cx="11.197"
           cy="21.407"
           r="0.26499999"
           id="circle933" />
        <circle
           cx="17.184"
           cy="21.407"
           r="0.26499999"
           id="circle935" />
        <circle
           cx="20.177"
           cy="16.223"
           r="0.26499999"
           id="circle937" />
        <circle
           cx="17.184"
           cy="11.038"
           r="0.26499999"
           id="circle939" />
        <circle
           cx="11.197"
           cy="5.0510001"
           r="0.26499999"
           id="circle941" />
        <circle
           cx="5.21"
           cy="13.229"
           r="0.26499999"
           id="circle943" />
      </g>
      <path
         d="m 13.329,14.459 v -0.612 c 0.667,-0.051 0.907,-0.333 0.907,-0.84 v -1.008 h -0.503 v 0.963 c 0,0.263 -0.108,0.43 -0.404,0.482 v -1.445 h -0.478 v 1.445 c -0.296,-0.052 -0.407,-0.215 -0.407,-0.478 v -0.967 h -0.497 v 1.015 c 0,0.508 0.222,0.785 0.904,0.833 v 0.612 z"
         fill="#222222"
         id="path947" />
      <path
         d="m 7.108,20.312 4.09,1.095 2.992,-2.993 2.994,2.993 4.089,-1.095 -1.095,-4.09 -4.09,-1.095 1.096,-4.09 -5.987,-5.986 -4.089,1.095 1.096,4.09 -2.993,2.993 2.993,2.994 z"
         fill="none"
         stroke="#222222"
         stroke-linejoin="bevel"
         stroke-width="0.265"
         id="path949" />
      <g
         fill="none"
         stroke="#222222"
         stroke-width="0.265"
         id="g955">
        <path
           d="m 3.832,12.549 -0.118,0.68 0.68,-0.119"
           id="path951" />
        <path
           d="M 11.513,3.87 5.812,5.399 7.022,9.92 3.713,13.23"
           stroke-linejoin="bevel"
           id="path953" />
      </g>
    </g>
    <g
       id="g1031"
       transform="matrix(1.8941304,0,0,1.895566,-4.5979305,146.83729)">
      <g
         fill="#222222"
         stroke="#222222"
         stroke-width="0.265"
         id="g989">
        <circle
           cx="4.98"
           cy="17.198"
           r="0.26499999"
           id="circle977" />
        <circle
           cx="15.979"
           cy="23.548"
           r="0.26499999"
           id="circle979" />
        <circle
           cx="21.478001"
           cy="17.198"
           r="0.26499999"
           id="circle981" />
        <circle
           cx="21.478001"
           cy="7.6729999"
           r="0.26499999"
           id="circle983" />
        <circle
           cx="18.729"
           cy="2.9100001"
           r="0.26499999"
           id="circle985" />
        <circle
           cx="10.479"
           cy="4.4980001"
           r="0.26499999"
           id="circle987" />
      </g>
      <path
         d="M 8.311,15.722 V 15.418 H 7.152 v 0.304 z m 0.074,-0.69 v -0.3 H 7.078 v 0.3 z m 0.04,1.457 v -0.304 h -1.39 v 0.304 z M 8.8,16.407 c -0.082,0 -0.124,-0.087 -0.124,-0.33 0,-0.244 0.042,-0.331 0.124,-0.331 0.085,0 0.125,0.09 0.125,0.333 0,0.238 -0.04,0.328 -0.125,0.328 z m -0.005,0.14 c 0.19,0 0.304,-0.15 0.304,-0.476 0,-0.328 -0.113,-0.463 -0.304,-0.463 -0.188,0 -0.299,0.135 -0.299,0.466 0,0.33 0.111,0.473 0.3,0.473 z"
         fill="#222222"
         id="path991" />
      <path
         d="m 16.56,20.484 v -0.306 h -1.159 v 0.305 z m 0.074,-0.69 v -0.3 h -1.306 v 0.3 z m 0.04,1.457 v -0.304 h -1.39 v 0.304 z m 0.407,0.027 v -0.879 h -0.14 c -0.01,0.103 -0.06,0.153 -0.212,0.153 v 0.12 h 0.18 v 0.605 z"
         fill="#222222"
         id="path993" />
      <path
         d="m 13.056,5.207 -0.595,1.757 h 0.38 l 0.382,-1.233 0.383,1.233 h 0.392 L 13.403,5.207 Z M 19.44,6.964 V 5.206 h -1.422 v 1.757 h 0.36 V 5.506 h 0.699 V 6.964 Z M 9.862,9.969 v 1.757 h 0.359 v -1.458 h 0.876 V 9.969 Z m 5.912,0.871 -0.481,0.582 v 0.304 h 1.373 v -0.304 h -0.945 l 0.474,-0.587 -0.47,-0.567 h 0.904 V 9.97 H 15.29 v 0.28 z m -1.709,5.649 -0.62,-1.757 H 13.02 l -0.627,1.757 z m -0.839,-1.363 h 0.003 l 0.338,1.061 H 12.88 Z m 5.678,1.363 v -0.246 c 0.471,-0.04 0.73,-0.254 0.73,-0.63 0,-0.375 -0.261,-0.603 -0.73,-0.648 v -0.233 h -0.346 v 0.233 c -0.474,0.042 -0.736,0.273 -0.736,0.648 0,0.373 0.26,0.588 0.736,0.627 v 0.25 z m -0.74,-0.878 c 0,-0.241 0.153,-0.373 0.394,-0.413 v 0.818 c -0.233,-0.038 -0.394,-0.157 -0.394,-0.405 z m 1.13,0.002 c 0,0.249 -0.162,0.365 -0.39,0.402 v -0.817 c 0.239,0.042 0.39,0.175 0.39,0.415 z"
         fill="#222222"
         id="path995" />
      <path
         d="m 10.48,17.198 v -3.175 m 2.749,-1.588 -2.75,1.588 m -2.749,-1.588 2.75,1.588 m 2.75,-1.588 V 9.26 M 15.979,7.673 13.229,9.26 M 10.48,7.673 13.23,9.26 m 2.749,7.938 v -3.175 m 2.75,-1.588 -2.75,1.588 m -2.749,-1.588 2.749,1.588 m 0,3.175 2.75,1.587 m -2.75,-1.587 -2.75,1.587 M 15.979,7.673 V 4.498 m 0,3.175 2.75,1.587"
         fill="none"
         stroke="#222222"
         stroke-dasharray="0.26458, 0.79374"
         stroke-dashoffset="0.132"
         stroke-linecap="square"
         stroke-width="0.265"
         id="path997" />
      <path
         d="m 4.98,17.198 2.75,1.587 2.75,-1.587 2.75,1.587 v 3.175 l 2.749,1.588 2.75,-1.588 v -3.175 l 2.75,-1.587 v -3.175 l -2.75,-1.588 V 9.26 l 2.75,-1.587 V 4.498 l -2.75,-1.587 -2.75,1.587 -2.75,-1.587 -2.75,1.587 0.001,3.175 -2.75,1.588 v 3.174 l -2.75,1.588 z"
         fill="none"
         stroke="#222222"
         stroke-linejoin="bevel"
         stroke-width="0.265"
         id="path999" />
      <path
         d="M 8.815,9.093 8.525,9.719 9.212,9.78 M 10.48,8.59 8.524,9.719 m 8.54,4.136 -0.29,0.626 0.687,0.061 m 1.268,-1.19 -1.956,1.129 m -3.147,-3.068 0.397,0.564 0.397,-0.564 M 14.023,9.72 v 2.258 M 16.375,6.65 16.772,7.215 17.169,6.65 M 16.772,4.957 V 7.215 M 12.542,8.406 13.23,8.344 12.939,7.718 m -1.665,-0.503 1.956,1.13 m -3.148,6.701 -0.397,-0.565 -0.397,0.565 m 0.397,1.694 v -2.26 m 4.231,-1.19 -0.687,0.062 0.29,0.626 m 1.665,0.502 -1.956,-1.128 m 3.438,4.7 -0.688,0.062 0.29,0.626 m 1.666,0.503 -1.956,-1.13"
         fill="none"
         stroke="#222222"
         stroke-width="0.265"
         id="path1001" />
      <g
         fill="none"
         stroke="#222222"
         stroke-width="0.265"
         id="g1007">
        <path
           d="M 10.083,4.605 9.686,4.04 9.289,4.605"
           id="path1003" />
        <path
           d="m 4.186,17.656 v -4.092 l 2.75,-1.588 V 8.802 L 9.686,7.214 V 4.04"
           stroke-linejoin="bevel"
           id="path1005" />
      </g>
    </g>
    <g
       id="g1078"
       transform="matrix(1.2666227,0,0,1.2661494,4.1135256,188.7799)">
      <g
         stroke="#222222"
         stroke-width="0.265"
         id="g1055">
        <g
           fill="#222222"
           id="g1043">
          <circle
             cx="7.1079998"
             cy="20.312"
             r="0.26499999"
             id="circle1033" />
          <circle
             cx="17.184"
             cy="21.407"
             r="0.26499999"
             id="circle1035" />
          <circle
             cx="20.177"
             cy="16.223"
             r="0.26499999"
             id="circle1037" />
          <circle
             cx="14.191"
             cy="8.0439997"
             r="0.26499999"
             id="circle1039" />
          <circle
             cx="7.1079998"
             cy="6.1469998"
             r="0.26499999"
             id="circle1041" />
        </g>
        <g
           fill="none"
           id="g1053">
          <path
             d="m 11.196,5.05 -4.088,1.097 1.095,4.09 -2.993,2.993 2.993,2.993 -0.924,3.451 a 0.661,0.661 0 0 0 -0.171,-0.022 0.661,0.661 0 0 0 -0.662,0.661 0.661,0.661 0 0 0 0.662,0.661 0.661,0.661 0 0 0 0.639,-0.49 l 3.45,0.924 2.993,-2.993 2.993,2.993 4.089,-1.095 -1.095,-4.09 -4.09,-1.096 1.096,-4.089 -5.987,-5.986 z"
             stroke-linejoin="bevel"
             id="path1045" />
          <path
             d="m 5.574,20.412 0.238,0.649 0.53,-0.443"
             id="path1047" />
          <path
             d="m 5.812,5.398 1.21,4.521 -3.309,3.31 3.31,3.31 -1.211,4.521"
             stroke-linejoin="bevel"
             id="path1049" />
          <circle
             cx="7.1079998"
             cy="20.312"
             r="0.66100001"
             id="circle1051" />
        </g>
      </g>
      <path
         d="m 13.181,13.348 -0.674,0.815 v 0.426 h 1.921 v -0.426 h -1.32 l 0.663,-0.822 -0.66,-0.793 h 1.267 v -0.419 h -1.875 v 0.393 z"
         fill="#222222"
         id="path1057" />
    </g>
    <g
       id="g1143"
       transform="matrix(1.8962708,0,0,1.8959552,83.682523,-1.3333773)">
      <g
         fill="#222222"
         stroke="#222222"
         stroke-width="0.265"
         id="g1092">
        <circle
           cx="4.98"
           cy="14.023"
           r="0.26499999"
           id="circle1080" />
        <circle
           cx="13.229"
           cy="21.959999"
           r="0.26499999"
           id="circle1082" />
        <circle
           cx="18.729"
           cy="21.959999"
           r="0.26499999"
           id="circle1084" />
        <circle
           cx="21.478001"
           cy="7.6729999"
           r="0.26499999"
           id="circle1086" />
        <circle
           cx="18.729"
           cy="2.9100001"
           r="0.26499999"
           id="circle1088" />
        <circle
           cx="7.73"
           cy="9.2600002"
           r="0.26499999"
           id="circle1090" />
      </g>
      <path
         d="m 7.9,16.489 v -0.436 c 0.476,-0.038 0.648,-0.239 0.648,-0.601 v -0.72 h -0.36 v 0.688 c 0,0.188 -0.076,0.307 -0.288,0.344 V 14.732 H 7.559 v 1.032 C 7.347,15.727 7.268,15.611 7.268,15.423 v -0.69 H 6.913 v 0.724 c 0,0.363 0.159,0.561 0.646,0.596 v 0.436 z"
         fill="#222222"
         id="path1094" />
      <path
         d="M 13.405,6.964 V 6.718 c 0.471,-0.04 0.73,-0.254 0.73,-0.63 0,-0.376 -0.261,-0.603 -0.73,-0.648 V 5.207 H 13.059 V 5.44 c -0.474,0.042 -0.736,0.272 -0.736,0.648 0,0.373 0.26,0.587 0.736,0.627 v 0.249 z m -0.74,-0.879 c 0,-0.24 0.153,-0.373 0.394,-0.413 V 6.49 C 12.826,6.453 12.664,6.334 12.664,6.085 Z m 1.13,0.003 c 0,0.249 -0.162,0.365 -0.39,0.402 V 5.672 c 0.238,0.043 0.39,0.175 0.39,0.416 z m 0.743,0.794 c -0.082,0 -0.125,-0.088 -0.125,-0.331 0,-0.244 0.043,-0.33 0.125,-0.33 0.084,0 0.124,0.09 0.124,0.332 0,0.239 -0.04,0.329 -0.124,0.329 z m -0.006,0.14 c 0.19,0 0.305,-0.151 0.305,-0.476 0,-0.329 -0.114,-0.463 -0.305,-0.463 -0.187,0 -0.299,0.134 -0.299,0.465 0,0.33 0.112,0.474 0.3,0.474 z"
         fill="#222222"
         id="path1096" />
      <path
         d="m 18.904,16.489 v -0.246 c 0.471,-0.04 0.73,-0.254 0.73,-0.63 0,-0.375 -0.261,-0.603 -0.73,-0.648 v -0.233 h -0.346 v 0.233 c -0.474,0.043 -0.736,0.273 -0.736,0.649 0,0.373 0.26,0.587 0.736,0.627 v 0.248 z m -0.74,-0.878 c 0,-0.24 0.153,-0.373 0.394,-0.413 v 0.818 C 18.325,15.979 18.163,15.86 18.163,15.611 Z m 1.13,0.003 c 0,0.248 -0.162,0.365 -0.39,0.402 v -0.818 c 0.238,0.042 0.39,0.175 0.39,0.416 z m 0.774,0.902 v -0.879 h -0.14 c -0.01,0.104 -0.06,0.154 -0.212,0.154 v 0.119 h 0.18 v 0.606 z"
         fill="#222222"
         id="path1098" />
      <path
         d="m 9.862,9.969 v 1.757 h 0.359 v -1.458 h 0.876 V 9.969 Z m 5.912,0.871 -0.481,0.582 v 0.304 h 1.373 v -0.304 h -0.945 l 0.474,-0.587 -0.47,-0.567 h 0.904 V 9.97 H 15.29 v 0.28 z m -1.709,5.649 -0.62,-1.757 H 13.02 l -0.627,1.757 z m -0.839,-1.363 h 0.003 l 0.338,1.061 H 12.88 Z"
         fill="#222222"
         id="path1100" />
      <path
         d="M 19.439,6.964 V 5.207 h -1.421 v 1.757 h 0.36 V 5.506 h 0.698 v 1.458 z m 0.428,-0.083 c -0.082,0 -0.124,-0.087 -0.124,-0.33 0,-0.244 0.042,-0.331 0.124,-0.331 0.085,0 0.125,0.09 0.125,0.333 0,0.239 -0.04,0.328 -0.125,0.328 z m -0.005,0.14 c 0.19,0 0.304,-0.15 0.304,-0.476 0,-0.328 -0.113,-0.463 -0.304,-0.463 -0.188,0 -0.299,0.135 -0.299,0.466 0,0.33 0.111,0.474 0.3,0.474 z"
         fill="#222222"
         id="path1102" />
      <path
         d="m 16.689,21.252 v -1.757 h -1.42 v 1.757 h 0.36 v -1.458 h 0.698 v 1.458 z m 0.461,0.026 V 20.4 h -0.14 c -0.011,0.103 -0.061,0.153 -0.212,0.153 v 0.12 h 0.18 v 0.605 z"
         fill="#222222"
         id="path1104" />
      <path
         d="m 10.481,17.198 v -3.175 m 2.749,-1.588 -2.75,1.588 m -2.749,-1.588 2.75,1.588 m 2.75,-1.588 V 9.26 M 15.98,7.673 13.23,9.26 m -2.749,-1.587 2.75,1.587 m 2.749,7.938 v -3.175 m 2.749,-1.588 -2.75,1.588 m -2.748,-1.588 2.749,1.588 m 0,3.175 2.75,1.587 m -2.75,-1.587 -2.75,1.587 M 15.98,7.673 V 4.498 m 0,3.175 2.75,1.587"
         fill="none"
         stroke="#222222"
         stroke-dasharray="0.26458, 0.79374"
         stroke-dashoffset="0.132"
         stroke-linecap="square"
         stroke-width="0.265"
         id="path1106" />
      <path
         d="m 4.98,17.198 2.75,1.587 2.75,-1.587 2.75,1.587 v 3.175 l 2.75,1.588 2.749,-1.588 v -3.175 l 2.75,-1.587 v -3.175 l -2.75,-1.588 V 9.26 l 2.75,-1.587 V 4.498 l -2.75,-1.587 -2.75,1.587 -2.75,-1.587 -2.75,1.587 0.002,3.175 -2.75,1.588 v 3.174 l -2.75,1.588 z"
         fill="none"
         stroke="#222222"
         stroke-linejoin="bevel"
         stroke-width="0.265"
         id="path1108" />
      <path
         d="M 8.815,9.092 8.525,9.718 9.212,9.78 M 10.48,8.59 8.524,9.718 m 8.54,4.136 -0.29,0.626 0.687,0.062 m 1.268,-1.191 -1.956,1.13 m -3.146,-3.069 0.397,0.565 0.397,-0.565 M 14.024,9.719 v 2.258 M 16.376,6.65 16.773,7.214 17.17,6.65 M 16.773,4.956 V 7.215 M 12.542,8.405 13.23,8.344 12.94,7.718 M 11.274,7.215 13.23,8.344 m -3.147,6.701 -0.397,-0.564 -0.397,0.564 m 0.397,1.694 V 14.48 m 4.231,-1.19 -0.688,0.061 0.29,0.626 m 1.666,0.503 -1.956,-1.13 m 3.438,4.703 -0.688,0.061 0.29,0.626 m 1.666,0.503 -1.956,-1.13"
         fill="none"
         stroke="#222222"
         stroke-width="0.265"
         id="path1110" />
      <g
         fill="none"
         stroke="#222222"
         stroke-width="0.265"
         id="g1116">
        <path
           d="M 7.334,9.366 6.937,8.802 6.54,9.366"
           id="path1112" />
        <path
           d="m 4.187,13.564 2.75,-1.588 V 8.802"
           stroke-linejoin="bevel"
           id="path1114" />
      </g>
    </g>
    <g
       id="g1187"
       transform="matrix(1.2660549,0,0,1.2663357,92.36446,36.193507)">
      <g
         fill="#222222"
         stroke="#222222"
         stroke-width="0.265"
         id="g1157">
        <circle
           cx="7.1079998"
           cy="20.312"
           r="0.26499999"
           id="circle1145" />
        <circle
           cx="17.184"
           cy="21.407"
           r="0.26499999"
           id="circle1147" />
        <circle
           cx="21.273001"
           cy="20.312"
           r="0.26499999"
           id="circle1149" />
        <circle
           cx="17.184"
           cy="11.038"
           r="0.26499999"
           id="circle1151" />
        <circle
           cx="11.197"
           cy="5.0510001"
           r="0.26499999"
           id="circle1153" />
        <circle
           cx="5.21"
           cy="13.229"
           r="0.26499999"
           id="circle1155" />
      </g>
      <path
         d="m 13.218,14.109 c -0.43,0 -0.7,-0.263 -0.7,-0.856 0,-0.578 0.259,-0.893 0.715,-0.893 0.455,0 0.707,0.32 0.707,0.882 0,0.626 -0.311,0.867 -0.722,0.867 z m 0.022,0.433 c 0.745,0 1.163,-0.437 1.163,-1.281 0,-0.845 -0.415,-1.345 -1.17,-1.345 -0.756,0 -1.178,0.5 -1.178,1.333 0,0.83 0.418,1.293 1.185,1.293 z m -0.511,-1.16 h 1.004 v -0.373 h -1.004 z"
         fill="#222222"
         id="path1159" />
      <path
         d="m 7.108,20.312 4.09,1.095 2.992,-2.993 2.994,2.993 4.089,-1.095 -1.095,-4.09 -4.09,-1.095 1.096,-4.09 -5.987,-5.986 -4.089,1.095 1.096,4.09 -2.993,2.993 2.993,2.994 z"
         fill="none"
         stroke="#222222"
         stroke-linejoin="bevel"
         stroke-width="0.265"
         id="path1161" />
      <g
         fill="none"
         stroke="#222222"
         stroke-width="0.265"
         id="g1167">
        <path
           d="m 3.832,12.55 -0.118,0.68 0.68,-0.12"
           id="path1163" />
        <path
           d="m 11.513,3.871 -5.701,1.527 1.21,4.521 -3.309,3.31"
           stroke-linejoin="bevel"
           id="path1165" />
      </g>
    </g>
    <g
       id="g1249"
       transform="matrix(1.896333,0,0,1.8959552,39.496687,72.752139)">
      <g
         fill="#222222"
         stroke="#222222"
         stroke-width="0.265"
         id="g1201">
        <circle
           cx="4.98"
           cy="14.023"
           r="0.26499999"
           id="circle1189" />
        <circle
           cx="13.229"
           cy="21.959999"
           r="0.26499999"
           id="circle1191" />
        <circle
           cx="18.729"
           cy="21.959999"
           r="0.26499999"
           id="circle1193" />
        <circle
           cx="21.478001"
           cy="7.6729999"
           r="0.26499999"
           id="circle1195" />
        <circle
           cx="13.229"
           cy="2.9100001"
           r="0.26499999"
           id="circle1197" />
        <circle
           cx="7.73"
           cy="9.2600002"
           r="0.26499999"
           id="circle1199" />
      </g>
      <path
         d="m 7.899,16.489 v -0.437 c 0.476,-0.037 0.648,-0.238 0.648,-0.6 v -0.72 h -0.36 v 0.688 c 0,0.188 -0.076,0.307 -0.288,0.344 V 14.732 H 7.558 v 1.032 C 7.346,15.727 7.266,15.61 7.266,15.423 V 14.732 H 6.912 v 0.725 c 0,0.362 0.159,0.56 0.646,0.595 v 0.437 z m 1.097,0.026 V 15.637 H 8.856 C 8.846,15.74 8.796,15.79 8.645,15.79 v 0.12 h 0.18 v 0.605 z"
         fill="#222222"
         id="path1203" />
      <path
         d="M 18.898,6.964 V 6.528 c 0.476,-0.037 0.648,-0.238 0.648,-0.6 v -0.72 h -0.36 v 0.687 c 0,0.188 -0.076,0.307 -0.288,0.344 V 5.207 H 18.557 V 6.239 C 18.345,6.202 18.266,6.086 18.266,5.898 V 5.208 H 17.91 v 0.724 c 0,0.363 0.159,0.561 0.646,0.596 v 0.436 z m 1.066,-0.082 c -0.082,0 -0.124,-0.087 -0.124,-0.33 0,-0.244 0.042,-0.331 0.124,-0.331 0.085,0 0.125,0.09 0.125,0.333 0,0.238 -0.04,0.328 -0.125,0.328 z m -0.005,0.14 c 0.19,0 0.304,-0.15 0.304,-0.476 0,-0.328 -0.114,-0.463 -0.304,-0.463 -0.188,0 -0.299,0.135 -0.299,0.466 0,0.33 0.111,0.473 0.299,0.473 z"
         fill="#222222"
         id="path1205" />
      <path
         d="M 13.405,6.964 V 6.718 c 0.471,-0.04 0.73,-0.254 0.73,-0.63 0,-0.376 -0.261,-0.603 -0.73,-0.648 V 5.207 H 13.059 V 5.44 c -0.474,0.042 -0.736,0.272 -0.736,0.648 0,0.373 0.26,0.587 0.736,0.627 v 0.249 z m -0.74,-0.879 c 0,-0.24 0.153,-0.373 0.394,-0.413 V 6.49 C 12.826,6.453 12.664,6.334 12.664,6.085 Z m 1.13,0.003 c 0,0.249 -0.162,0.365 -0.39,0.402 V 5.672 c 0.238,0.043 0.39,0.175 0.39,0.416 z m 0.743,0.794 c -0.082,0 -0.125,-0.088 -0.125,-0.331 0,-0.244 0.043,-0.33 0.125,-0.33 0.084,0 0.124,0.09 0.124,0.332 0,0.239 -0.04,0.329 -0.124,0.329 z m -0.006,0.14 c 0.19,0 0.305,-0.151 0.305,-0.476 0,-0.329 -0.114,-0.463 -0.305,-0.463 -0.187,0 -0.299,0.134 -0.299,0.465 0,0.33 0.112,0.474 0.3,0.474 z"
         fill="#222222"
         id="path1207" />
      <path
         d="m 18.904,16.489 v -0.246 c 0.471,-0.04 0.73,-0.254 0.73,-0.63 0,-0.375 -0.261,-0.603 -0.73,-0.648 v -0.233 h -0.346 v 0.233 c -0.474,0.043 -0.736,0.273 -0.736,0.649 0,0.373 0.26,0.587 0.736,0.627 v 0.248 z m -0.74,-0.878 c 0,-0.24 0.153,-0.373 0.394,-0.413 v 0.818 C 18.325,15.979 18.163,15.86 18.163,15.611 Z m 1.13,0.003 c 0,0.248 -0.162,0.365 -0.39,0.402 v -0.818 c 0.238,0.042 0.39,0.175 0.39,0.416 z m 0.774,0.902 v -0.879 h -0.14 c -0.01,0.104 -0.06,0.154 -0.212,0.154 v 0.119 h 0.18 v 0.606 z"
         fill="#222222"
         id="path1209" />
      <path
         d="m 9.862,9.969 v 1.757 h 0.359 v -1.458 h 0.876 V 9.969 Z m 5.912,0.871 -0.481,0.582 v 0.304 h 1.373 v -0.304 h -0.945 l 0.474,-0.587 -0.47,-0.567 h 0.904 V 9.97 H 15.29 v 0.28 z m -1.709,5.649 -0.62,-1.757 H 13.02 l -0.627,1.757 z m -0.839,-1.363 h 0.003 l 0.338,1.061 H 12.88 Z m 3.464,6.126 v -1.758 h -1.422 v 1.757 h 0.36 v -1.457 h 0.699 v 1.458 z"
         fill="#222222"
         id="path1211" />
      <path
         d="m 10.48,17.198 v -3.175 m 2.749,-1.588 -2.75,1.588 m -2.749,-1.588 2.75,1.588 m 2.75,-1.588 V 9.26 M 15.979,7.673 13.229,9.26 M 10.48,7.673 13.23,9.26 m 2.749,7.938 v -3.175 m 2.75,-1.588 -2.75,1.588 m -2.749,-1.588 2.749,1.588 m 0,3.175 2.75,1.587 m -2.75,-1.587 -2.75,1.587 M 15.979,7.673 V 4.498 m 0,3.175 2.75,1.587"
         fill="none"
         stroke="#222222"
         stroke-dasharray="0.26458, 0.79374"
         stroke-dashoffset="0.132"
         stroke-linecap="square"
         stroke-width="0.265"
         id="path1213" />
      <path
         d="m 4.98,17.198 2.75,1.587 2.75,-1.587 2.749,1.587 v 3.175 l 2.75,1.588 2.75,-1.588 v -3.175 l 2.75,-1.587 v -3.175 l -2.75,-1.588 V 9.26 l 2.75,-1.587 V 4.498 l -2.75,-1.587 -2.75,1.587 -2.75,-1.587 -2.75,1.587 0.001,3.175 -2.75,1.588 v 3.174 l -2.75,1.588 z"
         fill="none"
         stroke="#222222"
         stroke-linejoin="bevel"
         stroke-width="0.265"
         id="path1215" />
      <path
         d="M 8.814,9.092 8.524,9.718 9.211,9.78 M 10.479,8.59 8.523,9.718 m 8.54,4.136 -0.29,0.626 0.687,0.062 m 1.268,-1.191 -1.956,1.13 m -3.146,-3.069 0.397,0.564 0.396,-0.564 M 14.022,9.718 v 2.259 M 16.375,6.65 16.772,7.215 17.169,6.65 M 16.772,4.957 V 7.215 M 12.54,8.404 13.228,8.343 12.938,7.717 m -1.665,-0.503 1.956,1.13 m -3.147,6.702 -0.397,-0.565 -0.397,0.565 m 0.397,1.694 v -2.26 m 4.231,-1.19 -0.688,0.06 0.291,0.627 m 1.665,0.503 -1.956,-1.13 m 3.438,4.702 -0.688,0.062 0.29,0.626 m 1.666,0.503 -1.956,-1.13"
         fill="none"
         stroke="#222222"
         stroke-width="0.265"
         id="path1217" />
      <g
         fill="none"
         stroke="#222222"
         stroke-width="0.265"
         id="g1223">
        <path
           d="M 7.333,9.366 6.936,8.802 6.539,9.366"
           id="path1219" />
        <path
           d="m 4.186,13.564 2.75,-1.588 V 8.802"
           stroke-linejoin="bevel"
           id="path1221" />
      </g>
    </g>
    <g
       id="g1293"
       transform="matrix(1.2660549,0,0,1.2663357,48.178484,111.45572)">
      <g
         fill="#222222"
         stroke="#222222"
         stroke-width="0.265"
         id="g1263">
        <circle
           cx="11.197"
           cy="21.407"
           r="0.26499999"
           id="circle1251" />
        <circle
           cx="17.184"
           cy="21.407"
           r="0.26499999"
           id="circle1253" />
        <circle
           cx="21.273001"
           cy="20.312"
           r="0.26499999"
           id="circle1255" />
        <circle
           cx="17.184"
           cy="11.038"
           r="0.26499999"
           id="circle1257" />
        <circle
           cx="11.197"
           cy="5.0510001"
           r="0.26499999"
           id="circle1259" />
        <circle
           cx="5.21"
           cy="13.229"
           r="0.26499999"
           id="circle1261" />
      </g>
      <path
         d="M 14.042,13.385 V 12.959 H 12.42 v 0.426 z m 0.104,-0.967 v -0.419 h -1.83 v 0.419 z m 0.055,2.04 v -0.425 h -1.944 v 0.426 z"
         fill="#222222"
         id="path1265" />
      <path
         d="m 7.108,20.312 4.09,1.095 2.992,-2.993 2.994,2.993 4.089,-1.095 -1.095,-4.09 -4.09,-1.095 1.096,-4.09 -5.987,-5.986 -4.089,1.095 1.096,4.09 -2.993,2.993 2.993,2.994 z"
         fill="none"
         stroke="#222222"
         stroke-linejoin="bevel"
         stroke-width="0.265"
         id="path1267" />
      <g
         fill="none"
         stroke="#222222"
         stroke-width="0.265"
         id="g1273">
        <path
           d="m 3.832,12.55 -0.118,0.68 0.68,-0.12"
           id="path1269" />
        <path
           d="m 11.513,3.871 -5.701,1.527 1.21,4.521 -3.309,3.31"
           stroke-linejoin="bevel"
           id="path1271" />
      </g>
    </g>
    <g
       id="g1355"
       transform="matrix(1.8940684,0,0,1.895566,39.587907,-1.3294174)">
      <g
         fill="#222222"
         stroke="#222222"
         stroke-width="0.265"
         id="g1307">
        <circle
           cx="4.98"
           cy="17.198"
           r="0.26499999"
           id="circle1295" />
        <circle
           cx="15.979"
           cy="23.548"
           r="0.26499999"
           id="circle1297" />
        <circle
           cx="21.478001"
           cy="17.198"
           r="0.26499999"
           id="circle1299" />
        <circle
           cx="21.478001"
           cy="7.6729999"
           r="0.26499999"
           id="circle1301" />
        <circle
           cx="18.729"
           cy="2.9100001"
           r="0.26499999"
           id="circle1303" />
        <circle
           cx="7.73"
           cy="9.2600002"
           r="0.26499999"
           id="circle1305" />
      </g>
      <path
         d="m 10.48,17.198 v -3.175 m 2.749,-1.588 -2.75,1.588 m -2.749,-1.588 2.75,1.588 m 2.75,-1.588 V 9.26 M 15.979,7.673 13.229,9.26 M 10.48,7.673 13.23,9.26 m 2.749,7.938 v -3.175 m 2.75,-1.588 -2.75,1.588 m -2.749,-1.588 2.749,1.588 m 0,3.175 2.75,1.587 m -2.75,-1.587 -2.75,1.587 M 15.979,7.673 V 4.498 m 0,3.175 2.75,1.587"
         fill="none"
         stroke="#222222"
         stroke-dasharray="0.26458, 0.79374"
         stroke-dashoffset="0.132"
         stroke-linecap="square"
         stroke-width="0.265"
         id="path1309" />
      <path
         d="M 13.405,6.964 V 6.718 c 0.471,-0.04 0.73,-0.254 0.73,-0.63 0,-0.376 -0.261,-0.603 -0.73,-0.648 V 5.207 H 13.059 V 5.44 c -0.474,0.042 -0.736,0.272 -0.736,0.648 0,0.373 0.26,0.587 0.736,0.627 v 0.249 z m -0.74,-0.879 c 0,-0.24 0.153,-0.373 0.394,-0.413 V 6.49 C 12.826,6.453 12.664,6.334 12.664,6.085 Z m 1.13,0.003 c 0,0.249 -0.162,0.365 -0.39,0.402 V 5.672 c 0.238,0.043 0.39,0.175 0.39,0.416 z m 0.743,0.794 c -0.082,0 -0.125,-0.088 -0.125,-0.331 0,-0.244 0.043,-0.33 0.125,-0.33 0.084,0 0.124,0.09 0.124,0.332 0,0.239 -0.04,0.329 -0.124,0.329 z m -0.006,0.14 c 0.19,0 0.305,-0.151 0.305,-0.476 0,-0.329 -0.114,-0.463 -0.305,-0.463 -0.187,0 -0.299,0.134 -0.299,0.465 0,0.33 0.112,0.474 0.3,0.474 z"
         fill="#222222"
         id="path1311" />
      <path
         d="m 18.904,16.489 v -0.246 c 0.471,-0.04 0.73,-0.254 0.73,-0.63 0,-0.375 -0.261,-0.603 -0.73,-0.648 v -0.233 h -0.346 v 0.233 c -0.474,0.043 -0.736,0.273 -0.736,0.649 0,0.373 0.26,0.587 0.736,0.627 v 0.248 z m -0.74,-0.878 c 0,-0.24 0.153,-0.373 0.394,-0.413 v 0.818 C 18.325,15.979 18.163,15.86 18.163,15.611 Z m 1.13,0.003 c 0,0.248 -0.162,0.365 -0.39,0.402 v -0.818 c 0.238,0.042 0.39,0.175 0.39,0.416 z m 0.774,0.902 v -0.879 h -0.14 c -0.01,0.104 -0.06,0.154 -0.212,0.154 v 0.119 h 0.18 v 0.606 z"
         fill="#222222"
         id="path1313" />
      <path
         d="M 8.311,15.722 V 15.418 H 7.152 v 0.304 z m 0.074,-0.69 v -0.3 H 7.078 v 0.3 z m 0.04,1.457 v -0.304 h -1.39 v 0.304 z M 8.8,16.407 c -0.082,0 -0.124,-0.087 -0.124,-0.33 0,-0.244 0.042,-0.331 0.124,-0.331 0.085,0 0.125,0.09 0.125,0.333 0,0.238 -0.04,0.328 -0.125,0.328 z m -0.005,0.14 c 0.19,0 0.304,-0.15 0.304,-0.476 0,-0.328 -0.113,-0.463 -0.304,-0.463 -0.188,0 -0.299,0.135 -0.299,0.466 0,0.33 0.111,0.473 0.3,0.473 z"
         fill="#222222"
         id="path1315" />
      <path
         d="M 16.559,20.484 V 20.178 H 15.4 v 0.305 z m 0.074,-0.69 v -0.3 h -1.306 v 0.3 z m 0.04,1.457 v -0.304 h -1.39 v 0.304 z m 0.407,0.027 v -0.879 h -0.14 c -0.01,0.103 -0.06,0.153 -0.212,0.153 v 0.12 h 0.18 v 0.605 z"
         fill="#222222"
         id="path1317" />
      <path
         d="M 19.44,6.964 V 5.206 h -1.422 v 1.757 h 0.36 V 5.506 h 0.699 V 6.964 Z M 9.862,9.969 v 1.757 h 0.359 v -1.458 h 0.876 V 9.969 Z m 5.912,0.871 -0.481,0.582 v 0.304 h 1.373 v -0.304 h -0.945 l 0.474,-0.587 -0.47,-0.567 h 0.904 V 9.97 H 15.29 v 0.28 z m -1.709,5.649 -0.62,-1.757 H 13.02 l -0.627,1.757 z m -0.839,-1.363 h 0.003 l 0.338,1.061 H 12.88 Z"
         fill="#222222"
         id="path1319" />
      <path
         d="m 4.98,17.198 2.75,1.587 2.75,-1.587 2.749,1.587 v 3.175 l 2.75,1.588 2.75,-1.588 v -3.175 l 2.75,-1.587 v -3.175 l -2.75,-1.588 V 9.26 l 2.75,-1.587 V 4.498 l -2.75,-1.587 -2.75,1.587 -2.75,-1.587 -2.75,1.587 0.001,3.175 -2.75,1.588 v 3.174 l -2.75,1.588 z"
         fill="none"
         stroke="#222222"
         stroke-linejoin="bevel"
         stroke-width="0.265"
         id="path1321" />
      <g
         fill="none"
         stroke="#222222"
         stroke-width="0.265"
         id="g1327">
        <path
           d="M 7.334,9.367 6.937,8.802 6.54,9.367"
           id="path1323" />
        <path
           d="m 4.187,17.656 v -4.092 l 2.75,-1.588 V 8.802"
           stroke-linejoin="bevel"
           id="path1325" />
      </g>
      <path
         d="M 8.814,9.092 8.524,9.718 9.211,9.78 M 10.479,8.59 8.523,9.718 m 8.54,4.136 -0.29,0.626 0.687,0.062 m 1.268,-1.191 -1.956,1.13 m -3.146,-3.068 0.397,0.564 0.397,-0.564 M 14.023,9.72 v 2.258 M 16.375,6.65 16.772,7.215 17.169,6.65 M 16.772,4.957 V 7.215 M 12.54,8.404 13.228,8.343 12.938,7.717 m -1.665,-0.503 1.956,1.13 m -3.147,6.702 -0.397,-0.565 -0.397,0.565 m 0.397,1.694 v -2.26 m 4.231,-1.19 -0.688,0.06 0.291,0.627 m 1.665,0.503 -1.956,-1.13 m 3.438,4.702 -0.688,0.062 0.29,0.626 m 1.666,0.503 -1.956,-1.13"
         fill="none"
         stroke="#222222"
         stroke-width="0.265"
         id="path1329" />
    </g>
    <g
       id="g1393"
       transform="matrix(1.258336,0,0,1.2621276,47.461306,35.643913)">
      <g
         fill="#222222"
         stroke="#222222"
         stroke-width="0.265"
         id="g1367">
        <circle
           cx="7.1079998"
           cy="6.1469998"
           r="0.26499999"
           id="circle1357" />
        <circle
           cx="7.1079998"
           cy="20.312"
           r="0.26499999"
           id="circle1359" />
        <circle
           cx="17.184"
           cy="21.407"
           r="0.26499999"
           id="circle1361" />
        <circle
           cx="20.177"
           cy="16.223"
           r="0.26499999"
           id="circle1363" />
        <circle
           cx="14.191"
           cy="8.0439997"
           r="0.26499999"
           id="circle1365" />
      </g>
      <path
         d="m 14.637,14.589 -0.866,-2.46 h -0.597 l -0.878,2.46 z m -1.174,-1.908 h 0.004 l 0.474,1.485 h -0.963 z"
         fill="#222222"
         id="path1369" />
      <path
         d="m 11.196,5.052 -3.45,0.924 a 0.661,0.661 0 0 1 0.023,0.17 0.661,0.661 0 0 1 -0.49,0.64 l 0.924,3.45 -2.993,2.994 2.993,2.993 -1.095,4.09 4.088,1.095 2.994,-2.993 2.993,2.993 4.089,-1.095 -1.095,-4.09 -4.09,-1.096 1.096,-4.089 z"
         fill="none"
         stroke="#222222"
         stroke-linejoin="bevel"
         stroke-width="0.265"
         id="path1371" />
      <path
         d="M 5.75,4.711 5.812,5.398 6.438,5.108"
         fill="none"
         stroke="#222222"
         stroke-width="0.265"
         id="path1373" />
      <circle
         cx="7.1079998"
         cy="6.1469998"
         r="0.66100001"
         fill="none"
         stroke="#222222"
         stroke-width="0.265"
         id="circle1375" />
    </g>
    <g
       id="g1443"
       transform="matrix(1.8963183,0,0,1.8934767,-4.6891026,-5.8148908)">
      <g
         fill="#222222"
         stroke="#222222"
         stroke-width="0.265"
         id="g1407">
        <circle
           cx="4.98"
           cy="16.403999"
           r="0.26499999"
           id="circle1395" />
        <circle
           cx="7.73"
           cy="21.167"
           r="0.26499999"
           id="circle1397" />
        <circle
           cx="21.478001"
           cy="19.579"
           r="0.26499999"
           id="circle1399" />
        <circle
           cx="21.478001"
           cy="6.8790002"
           r="0.26499999"
           id="circle1401" />
        <circle
           cx="13.229"
           cy="5.2919998"
           r="0.26499999"
           id="circle1403" />
        <circle
           cx="7.73"
           cy="11.642"
           r="0.26499999"
           id="circle1405" />
      </g>
      <path
         d="M 8.441,18.87 V 17.112 H 7.019 v 1.757 h 0.36 v -1.457 h 0.699 v 1.458 z m 1.422,-6.52 v 1.757 h 0.359 v -1.458 h 0.876 V 12.35 Z m 5.911,0.871 -0.481,0.582 v 0.304 h 1.373 v -0.304 h -0.945 l 0.474,-0.587 -0.47,-0.567 h 0.904 V 12.351 H 15.29 v 0.28 z m -1.708,5.649 -0.62,-1.757 h -0.425 l -0.627,1.757 z m -0.839,-1.363 h 0.003 l 0.338,1.061 H 12.881 Z M 13.404,9.345 V 9.099 c 0.471,-0.04 0.73,-0.254 0.73,-0.63 0,-0.375 -0.261,-0.603 -0.73,-0.648 V 7.588 h -0.346 v 0.233 c -0.474,0.042 -0.736,0.273 -0.736,0.648 0,0.373 0.26,0.588 0.736,0.627 v 0.25 z m -0.74,-0.878 c 0,-0.241 0.153,-0.373 0.394,-0.413 V 8.872 C 12.825,8.834 12.664,8.715 12.664,8.467 Z m 1.13,0.002 c 0,0.249 -0.162,0.365 -0.39,0.402 V 8.054 c 0.239,0.042 0.39,0.175 0.39,0.415 z m 5.515,0.109 V 8.274 H 18.15 v 0.304 z m 0.074,-0.69 v -0.3 h -1.307 v 0.3 z m 0.04,1.457 V 9.041 h -1.39 V 9.345 Z M 18.72,18.62 c -0.307,0 -0.5,-0.188 -0.5,-0.61 0,-0.414 0.185,-0.639 0.51,-0.639 0.326,0 0.506,0.228 0.506,0.63 0,0.447 -0.222,0.62 -0.516,0.62 z m 0.016,0.31 c 0.532,0 0.831,-0.312 0.831,-0.916 0,-0.603 -0.296,-0.96 -0.836,-0.96 -0.54,0 -0.841,0.357 -0.841,0.952 0,0.593 0.298,0.924 0.846,0.924 z m -0.365,-0.828 h 0.717 v -0.268 h -0.717 z"
         fill="#222222"
         id="path1409" />
      <path
         d="m 10.48,19.58 v -3.175 m 2.749,-1.588 -2.75,1.588 m -2.749,-1.588 2.75,1.588 m 2.75,-1.588 v -3.175 m 2.749,-1.587 -2.75,1.587 m -2.749,-1.587 2.75,1.587 m 2.749,7.938 v -3.175 m 2.75,-1.588 -2.75,1.588 m -2.749,-1.588 2.749,1.588 m 0,-6.35 V 6.88 m 0,3.175 2.75,1.587"
         fill="none"
         stroke="#222222"
         stroke-dasharray="0.26458, 0.79374"
         stroke-dashoffset="0.132"
         stroke-linecap="square"
         stroke-width="0.265"
         id="path1411" />
      <path
         d="m 8.815,11.474 -0.29,0.626 0.687,0.062 m 1.268,-1.191 -1.956,1.13 m 8.54,4.135 -0.29,0.626 0.687,0.062 m 1.268,-1.191 -1.956,1.13 m -3.147,-3.07 0.397,0.565 0.397,-0.565 M 14.023,12.1 v 2.259 M 16.376,9.032 16.773,9.596 17.17,9.032 M 16.773,7.338 v 2.259 m -4.232,1.19 0.688,-0.062 -0.29,-0.626 m -1.666,-0.503 1.956,1.13 m -3.146,6.702 -0.397,-0.565 -0.397,0.565 m 0.397,1.693 v -2.259 m 4.231,-1.19 -0.688,0.061 0.29,0.626 m 1.666,0.503 -1.956,-1.13"
         fill="none"
         stroke="#222222"
         stroke-width="0.265"
         id="path1413" />
      <g
         fill="none"
         stroke="#222222"
         stroke-width="0.265"
         id="g1419">
        <path
           d="M 7.333,11.748 6.936,11.184 6.539,11.748"
           id="path1415" />
        <path
           d="m 4.186,15.946 2.75,-1.588 v -3.174"
           stroke-linejoin="bevel"
           id="path1417" />
      </g>
      <path
         d="m 13.229,21.167 2.75,-1.587 2.75,1.587 2.75,-1.587 v -3.175 l -2.75,-1.588 v -3.175 l 2.75,-1.587 V 6.88 l -2.75,-1.588 -2.75,1.588 -2.75,-1.588 -2.75,1.588 0.001,3.175 -2.75,1.587 v 3.175 l -2.75,1.588 v 3.175 l 2.75,1.587 2.75,-1.587 z"
         fill="none"
         stroke="#222222"
         stroke-linejoin="bevel"
         stroke-width="0.265"
         id="path1421" />
    </g>
    <g
       id="g1493"
       transform="matrix(1.2612471,0,0,1.2575735,0.73241709,36.306064)">
      <g
         fill="#222222"
         stroke="#222222"
         stroke-width="0.265"
         id="g1457">
        <circle
           cx="17.773001"
           cy="20.312"
           r="0.26499999"
           id="circle1445" />
        <circle
           cx="7.697"
           cy="21.407"
           r="0.26499999"
           id="circle1447" />
        <circle
           cx="1.71"
           cy="13.229"
           r="0.26499999"
           id="circle1449" />
        <circle
           cx="17.773001"
           cy="6.1469998"
           r="0.26499999"
           id="circle1451" />
        <circle
           cx="7.697"
           cy="5.0510001"
           r="0.26499999"
           id="circle1453" />
        <circle
           cx="30.040001"
           cy="13.229"
           r="0.26499999"
           id="circle1455" />
      </g>
      <path
         d="m 8.91,11.954 v 2.46 h 0.504 v -2.043 h 1.226 v -0.417 z m 2.285,2.345 c -0.115,0 -0.174,-0.123 -0.174,-0.463 0,-0.341 0.06,-0.463 0.174,-0.463 0.119,0 0.174,0.125 0.174,0.466 0,0.334 -0.055,0.46 -0.174,0.46 z m -0.007,0.196 c 0.267,0 0.426,-0.211 0.426,-0.667 0,-0.46 -0.16,-0.648 -0.426,-0.648 -0.263,0 -0.419,0.189 -0.419,0.652 0,0.463 0.156,0.663 0.419,0.663 z"
         fill="#222222"
         id="path1459" />
      <path
         d="m 19.557,11.462 v 2.46 h 0.504 v -2.043 h 1.226 v -0.416 z m 2.33,2.496 v -1.23 H 21.69 c -0.014,0.145 -0.085,0.215 -0.296,0.215 v 0.167 h 0.252 v 0.848 z"
         fill="#222222"
         id="path1461" />
      <g
         fill="none"
         stroke="#222222"
         stroke-width="0.265"
         id="g1467">
        <path
           d="m 0.332,12.549 -0.119,0.68 0.68,-0.119"
           id="path1463" />
        <path
           d="M 8.013,3.87 2.31,5.397 3.523,9.92 0.213,13.23"
           stroke-linejoin="bevel"
           id="path1465" />
      </g>
      <path
         d="m 7.697,5.05 -4.089,1.097 1.096,4.09 -2.994,2.993 2.994,2.993 -1.096,4.09 4.089,1.095 2.993,-2.993 2.994,2.993 8.178,-2.19 1.095,-4.09 4.09,1.096 2.993,-2.993 -2.993,-2.994 -4.09,1.095 L 21.862,7.243 13.684,5.052 10.69,8.045 Z"
         fill="none"
         stroke="#222222"
         stroke-linejoin="bevel"
         stroke-width="0.265"
         id="path1469" />
      <path
         d="m 10.69,8.044 2.994,2.993 -1.096,4.09 4.09,1.095 1.095,4.09"
         fill="none"
         stroke="#222222"
         stroke-dasharray="0.264583, 0.793749"
         stroke-dashoffset="0.132"
         stroke-linecap="square"
         stroke-width="0.265"
         id="path1471" />
    </g>
    <g
       id="g1552"
       transform="matrix(1.8963352,0,0,1.8955473,-4.6893519,72.753974)">
      <g
         fill="#222222"
         stroke="#222222"
         stroke-width="0.265"
         id="g1507">
        <circle
           cx="4.98"
           cy="14.023"
           r="0.26499999"
           id="circle1495" />
        <circle
           cx="15.979"
           cy="23.548"
           r="0.26499999"
           id="circle1497" />
        <circle
           cx="21.478001"
           cy="17.198"
           r="0.26499999"
           id="circle1499" />
        <circle
           cx="21.478001"
           cy="7.6729999"
           r="0.26499999"
           id="circle1501" />
        <circle
           cx="18.729"
           cy="2.9100001"
           r="0.26499999"
           id="circle1503" />
        <circle
           cx="7.73"
           cy="9.2600002"
           r="0.26499999"
           id="circle1505" />
      </g>
      <path
         d="M 16.56,20.484 V 20.18 h -1.159 v 0.304 z m 0.074,-0.69 v -0.3 h -1.307 v 0.3 z m 0.04,1.457 v -0.304 h -1.39 v 0.304 z M 7.9,16.489 v -0.436 c 0.476,-0.038 0.648,-0.239 0.648,-0.601 v -0.72 h -0.36 v 0.688 c 0,0.188 -0.076,0.307 -0.288,0.344 V 14.732 H 7.559 v 1.032 C 7.347,15.727 7.268,15.611 7.268,15.423 v -0.69 H 6.913 v 0.724 c 0,0.363 0.159,0.561 0.646,0.596 v 0.436 z"
         fill="#222222"
         id="path1509" />
      <path
         d="M 13.405,6.964 V 6.718 c 0.471,-0.04 0.73,-0.254 0.73,-0.63 0,-0.376 -0.261,-0.603 -0.73,-0.648 V 5.207 H 13.059 V 5.44 c -0.474,0.042 -0.736,0.272 -0.736,0.648 0,0.373 0.26,0.587 0.736,0.627 v 0.249 z m -0.74,-0.879 c 0,-0.24 0.153,-0.373 0.394,-0.413 V 6.49 C 12.826,6.453 12.664,6.334 12.664,6.085 Z m 1.13,0.003 c 0,0.249 -0.162,0.365 -0.39,0.402 V 5.672 c 0.238,0.043 0.39,0.175 0.39,0.416 z m 0.743,0.794 c -0.082,0 -0.125,-0.088 -0.125,-0.331 0,-0.244 0.043,-0.33 0.125,-0.33 0.084,0 0.124,0.09 0.124,0.332 0,0.239 -0.04,0.329 -0.124,0.329 z m -0.006,0.14 c 0.19,0 0.305,-0.151 0.305,-0.476 0,-0.329 -0.114,-0.463 -0.305,-0.463 -0.187,0 -0.299,0.134 -0.299,0.465 0,0.33 0.112,0.474 0.3,0.474 z"
         fill="#222222"
         id="path1511" />
      <path
         d="m 18.904,16.489 v -0.246 c 0.471,-0.04 0.73,-0.254 0.73,-0.63 0,-0.375 -0.261,-0.603 -0.73,-0.648 v -0.233 h -0.346 v 0.233 c -0.474,0.043 -0.736,0.273 -0.736,0.649 0,0.373 0.26,0.587 0.736,0.627 v 0.248 z m -0.74,-0.878 c 0,-0.24 0.153,-0.373 0.394,-0.413 v 0.818 C 18.325,15.979 18.163,15.86 18.163,15.611 Z m 1.13,0.003 c 0,0.248 -0.162,0.365 -0.39,0.402 v -0.818 c 0.238,0.042 0.39,0.175 0.39,0.416 z m 0.774,0.902 v -0.879 h -0.14 c -0.01,0.104 -0.06,0.154 -0.212,0.154 v 0.119 h 0.18 v 0.606 z"
         fill="#222222"
         id="path1513" />
      <path
         d="M 19.44,6.964 V 5.206 h -1.422 v 1.757 h 0.36 V 5.506 h 0.699 V 6.964 Z M 9.862,9.969 v 1.757 h 0.359 v -1.458 h 0.876 V 9.969 Z m 5.912,0.871 -0.481,0.582 v 0.304 h 1.373 v -0.304 h -0.945 l 0.474,-0.587 -0.47,-0.567 h 0.904 V 9.97 H 15.29 v 0.28 z m -1.709,5.649 -0.62,-1.757 H 13.02 l -0.627,1.757 z m -0.839,-1.363 h 0.003 l 0.338,1.061 H 12.88 Z"
         fill="#222222"
         id="path1515" />
      <path
         d="m 10.48,17.198 v -3.175 m 2.749,-1.588 -2.75,1.588 m -2.749,-1.588 2.75,1.588 m 2.75,-1.588 V 9.26 M 15.979,7.673 13.229,9.26 M 10.48,7.673 13.23,9.26 m 2.749,7.938 v -3.175 m 2.75,-1.588 -2.75,1.588 m -2.749,-1.588 2.749,1.588 m 0,3.175 2.75,1.587 m -2.75,-1.587 -2.75,1.587 M 15.979,7.673 V 4.498 m 0,3.175 2.75,1.587"
         fill="none"
         stroke="#222222"
         stroke-dasharray="0.26458, 0.79374"
         stroke-dashoffset="0.132"
         stroke-linecap="square"
         stroke-width="0.265"
         id="path1517" />
      <path
         d="m 4.98,17.198 2.75,1.587 2.75,-1.587 2.75,1.587 v 3.175 l 2.749,1.588 2.75,-1.588 v -3.175 l 2.75,-1.587 v -3.175 l -2.75,-1.588 V 9.26 l 2.75,-1.587 V 4.498 l -2.75,-1.587 -2.75,1.587 -2.75,-1.587 -2.75,1.587 0.001,3.175 -2.75,1.588 v 3.174 l -2.75,1.588 z"
         fill="none"
         stroke="#222222"
         stroke-linejoin="bevel"
         stroke-width="0.265"
         id="path1519" />
      <path
         d="M 8.815,9.093 8.525,9.719 9.212,9.78 M 10.48,8.59 8.524,9.719 m 8.54,4.136 -0.29,0.626 0.687,0.061 m 1.268,-1.19 -1.956,1.129 m -3.147,-3.068 0.397,0.564 0.397,-0.564 M 14.023,9.72 v 2.258 M 16.375,6.65 16.772,7.215 17.169,6.65 M 16.772,4.957 V 7.215 M 12.542,8.406 13.23,8.344 12.939,7.718 m -1.665,-0.503 1.956,1.13 m -3.148,6.701 -0.397,-0.565 -0.397,0.565 m 0.397,1.694 v -2.26 m 4.231,-1.19 -0.687,0.062 0.29,0.626 m 1.665,0.502 -1.956,-1.128 m 3.438,4.7 -0.688,0.062 0.29,0.626 m 1.666,0.503 -1.956,-1.13"
         fill="none"
         stroke="#222222"
         stroke-width="0.265"
         id="path1521" />
      <g
         fill="none"
         stroke="#222222"
         stroke-width="0.265"
         id="g1527">
        <path
           d="M 7.333,9.367 6.936,8.802 6.539,9.367"
           id="path1523" />
        <path
           d="m 4.186,13.564 2.75,-1.587 V 8.802"
           stroke-linejoin="bevel"
           id="path1525" />
      </g>
    </g>
    <g
       id="g1596"
       transform="matrix(1.2660537,0,0,1.2663772,4.1630938,111.45582)">
      <g
         fill="#222222"
         stroke="#222222"
         stroke-width="0.265"
         id="g1566">
        <circle
           cx="7.1079998"
           cy="20.312"
           r="0.26499999"
           id="circle1554" />
        <circle
           cx="17.184"
           cy="21.407"
           r="0.26499999"
           id="circle1556" />
        <circle
           cx="20.177"
           cy="16.223"
           r="0.26499999"
           id="circle1558" />
        <circle
           cx="14.191"
           cy="8.0439997"
           r="0.26499999"
           id="circle1560" />
        <circle
           cx="11.197"
           cy="5.0510001"
           r="0.26499999"
           id="circle1562" />
        <circle
           cx="5.21"
           cy="13.229"
           r="0.26499999"
           id="circle1564" />
      </g>
      <path
         d="m 12.85,11.999 -0.833,2.46 h 0.533 l 0.534,-1.726 0.537,1.726 h 0.548 l -0.833,-2.46 z"
         fill="#222222"
         id="path1568" />
      <path
         d="m 7.108,20.312 4.09,1.095 2.992,-2.993 2.994,2.993 4.089,-1.095 -1.095,-4.09 -4.09,-1.095 1.096,-4.09 -5.987,-5.986 -4.089,1.095 1.096,4.09 -2.993,2.993 2.993,2.994 z"
         fill="none"
         stroke="#222222"
         stroke-linejoin="bevel"
         stroke-width="0.265"
         id="path1570" />
      <g
         fill="none"
         stroke="#222222"
         stroke-width="0.265"
         id="g1576">
        <path
           d="m 3.832,12.549 -0.118,0.68 0.68,-0.119"
           id="path1572" />
        <path
           d="M 11.513,3.87 5.812,5.399 7.022,9.92 3.713,13.23"
           stroke-linejoin="bevel"
           id="path1574" />
      </g>
    </g>
    <g
       id="g1658"
       transform="matrix(1.896333,0,0,1.8959552,39.496687,146.83369)">
      <g
         fill="#222222"
         stroke="#222222"
         stroke-width="0.265"
         id="g1610">
        <circle
           cx="4.98"
           cy="14.023"
           r="0.26499999"
           id="circle1598" />
        <circle
           cx="13.229"
           cy="21.959999"
           r="0.26499999"
           id="circle1600" />
        <circle
           cx="21.478001"
           cy="17.198"
           r="0.26499999"
           id="circle1602" />
        <circle
           cx="21.478001"
           cy="7.6729999"
           r="0.26499999"
           id="circle1604" />
        <circle
           cx="18.729"
           cy="2.9100001"
           r="0.26499999"
           id="circle1606" />
        <circle
           cx="7.73"
           cy="9.2600002"
           r="0.26499999"
           id="circle1608" />
      </g>
      <path
         d="m 16.148,21.252 v -0.437 c 0.476,-0.037 0.648,-0.238 0.648,-0.6 v -0.72 h -0.36 v 0.688 c 0,0.188 -0.076,0.307 -0.288,0.344 v -1.032 h -0.341 v 1.032 C 15.595,20.49 15.515,20.373 15.515,20.186 v -0.691 h -0.354 v 0.725 c 0,0.362 0.159,0.56 0.646,0.595 v 0.437 z m 1.097,0.026 V 20.4 h -0.14 c -0.01,0.103 -0.06,0.153 -0.211,0.153 v 0.12 h 0.18 v 0.605 z"
         fill="#222222"
         id="path1612" />
      <path
         d="m 7.899,16.488 v -0.436 c 0.476,-0.037 0.648,-0.238 0.648,-0.6 v -0.72 h -0.36 v 0.687 c 0,0.188 -0.076,0.307 -0.288,0.344 V 14.731 H 7.558 v 1.032 C 7.346,15.726 7.267,15.61 7.267,15.422 v -0.69 H 6.911 v 0.724 c 0,0.363 0.159,0.561 0.646,0.596 v 0.436 z m 1.066,-0.082 c -0.082,0 -0.124,-0.087 -0.124,-0.33 0,-0.244 0.042,-0.331 0.124,-0.331 0.085,0 0.125,0.09 0.125,0.333 0,0.238 -0.04,0.328 -0.125,0.328 z m -0.005,0.14 c 0.19,0 0.304,-0.15 0.304,-0.476 0,-0.328 -0.114,-0.463 -0.304,-0.463 -0.188,0 -0.299,0.135 -0.299,0.466 0,0.33 0.111,0.473 0.299,0.473 z"
         fill="#222222"
         id="path1614" />
      <path
         d="M 13.405,6.964 V 6.718 c 0.471,-0.04 0.73,-0.254 0.73,-0.63 0,-0.376 -0.261,-0.603 -0.73,-0.648 V 5.207 H 13.059 V 5.44 c -0.474,0.042 -0.736,0.272 -0.736,0.648 0,0.373 0.26,0.587 0.736,0.627 v 0.249 z m -0.74,-0.879 c 0,-0.24 0.153,-0.373 0.394,-0.413 V 6.49 C 12.826,6.453 12.664,6.334 12.664,6.085 Z m 1.13,0.003 c 0,0.249 -0.162,0.365 -0.39,0.402 V 5.672 c 0.238,0.043 0.39,0.175 0.39,0.416 z m 0.743,0.794 c -0.082,0 -0.125,-0.088 -0.125,-0.331 0,-0.244 0.043,-0.33 0.125,-0.33 0.084,0 0.124,0.09 0.124,0.332 0,0.239 -0.04,0.329 -0.124,0.329 z m -0.006,0.14 c 0.19,0 0.305,-0.151 0.305,-0.476 0,-0.329 -0.114,-0.463 -0.305,-0.463 -0.187,0 -0.299,0.134 -0.299,0.465 0,0.33 0.112,0.474 0.3,0.474 z"
         fill="#222222"
         id="path1616" />
      <path
         d="m 18.904,16.489 v -0.246 c 0.471,-0.04 0.73,-0.254 0.73,-0.63 0,-0.375 -0.261,-0.603 -0.73,-0.648 v -0.233 h -0.346 v 0.233 c -0.474,0.043 -0.736,0.273 -0.736,0.649 0,0.373 0.26,0.587 0.736,0.627 v 0.248 z m -0.74,-0.878 c 0,-0.24 0.153,-0.373 0.394,-0.413 v 0.818 C 18.325,15.979 18.163,15.86 18.163,15.611 Z m 1.13,0.003 c 0,0.248 -0.162,0.365 -0.39,0.402 v -0.818 c 0.238,0.042 0.39,0.175 0.39,0.416 z m 0.774,0.902 v -0.879 h -0.14 c -0.01,0.104 -0.06,0.154 -0.212,0.154 v 0.119 h 0.18 v 0.606 z"
         fill="#222222"
         id="path1618" />
      <path
         d="M 19.44,6.964 V 5.206 h -1.422 v 1.757 h 0.36 V 5.506 h 0.699 V 6.964 Z M 9.862,9.969 v 1.757 h 0.359 v -1.458 h 0.876 V 9.969 Z m 5.912,0.871 -0.481,0.582 v 0.304 h 1.373 v -0.304 h -0.945 l 0.474,-0.587 -0.47,-0.567 h 0.904 V 9.97 H 15.29 v 0.28 z m -1.709,5.649 -0.62,-1.757 H 13.02 l -0.627,1.757 z m -0.839,-1.363 h 0.003 l 0.338,1.061 H 12.88 Z"
         fill="#222222"
         id="path1620" />
      <path
         d="m 10.48,17.198 v -3.175 m 2.749,-1.588 -2.75,1.588 m -2.749,-1.588 2.75,1.588 m 2.75,-1.588 V 9.26 M 15.979,7.673 13.229,9.26 M 10.48,7.673 13.23,9.26 m 2.749,7.938 v -3.175 m 2.75,-1.588 -2.75,1.588 m -2.749,-1.588 2.749,1.588 m 0,3.175 2.75,1.587 m -2.75,-1.587 -2.75,1.587 M 15.979,7.673 V 4.498 m 0,3.175 2.75,1.587"
         fill="none"
         stroke="#222222"
         stroke-dasharray="0.26458, 0.79374"
         stroke-dashoffset="0.132"
         stroke-linecap="square"
         stroke-width="0.265"
         id="path1622" />
      <path
         d="m 4.98,17.198 2.75,1.587 2.75,-1.587 2.749,1.587 v 3.175 l 2.75,1.588 2.75,-1.588 v -3.175 l 2.75,-1.587 v -3.175 l -2.75,-1.588 V 9.26 l 2.75,-1.587 V 4.498 l -2.75,-1.587 -2.75,1.587 -2.75,-1.587 -2.75,1.587 0.001,3.175 -2.75,1.588 v 3.174 l -2.75,1.588 z"
         fill="none"
         stroke="#222222"
         stroke-linejoin="bevel"
         stroke-width="0.265"
         id="path1624" />
      <path
         d="M 8.814,9.092 8.524,9.718 9.211,9.78 M 10.479,8.59 8.523,9.718 m 8.54,4.136 -0.29,0.626 0.687,0.062 m 1.268,-1.191 -1.956,1.13 m -3.146,-3.069 0.397,0.564 0.396,-0.564 M 14.022,9.718 v 2.259 M 16.375,6.65 16.772,7.215 17.169,6.65 M 16.772,4.957 V 7.215 M 12.54,8.404 13.228,8.343 12.938,7.717 m -1.665,-0.503 1.956,1.13 m -3.147,6.702 -0.397,-0.565 -0.397,0.565 m 0.397,1.694 v -2.26 m 4.231,-1.19 -0.688,0.06 0.291,0.627 m 1.665,0.503 -1.956,-1.13 m 3.438,4.702 -0.688,0.062 0.29,0.626 m 1.666,0.503 -1.956,-1.13"
         fill="none"
         stroke="#222222"
         stroke-width="0.265"
         id="path1626" />
      <g
         fill="none"
         stroke="#222222"
         stroke-width="0.265"
         id="g1632">
        <path
           d="M 7.333,9.366 6.936,8.802 6.539,9.366"
           id="path1628" />
        <path
           d="m 4.186,13.564 2.75,-1.588 V 8.802"
           stroke-linejoin="bevel"
           id="path1630" />
      </g>
    </g>
    <g
       id="g1702"
       transform="matrix(1.2612695,0,0,1.2621104,48.408763,189.57852)">
      <g
         fill="#222222"
         stroke="#222222"
         stroke-width="0.265"
         id="g1672">
        <circle
           cx="7.1079998"
           cy="20.312"
           r="0.26499999"
           id="circle1660" />
        <circle
           cx="17.184"
           cy="21.407"
           r="0.26499999"
           id="circle1662" />
        <circle
           cx="20.177"
           cy="16.223"
           r="0.26499999"
           id="circle1664" />
        <circle
           cx="17.184"
           cy="11.038"
           r="0.26499999"
           id="circle1666" />
        <circle
           cx="11.197"
           cy="5.0510001"
           r="0.26499999"
           id="circle1668" />
        <circle
           cx="5.21"
           cy="13.229"
           r="0.26499999"
           id="circle1670" />
      </g>
      <path
         d="m 13.338,14.459 v -0.346 c 0.66,-0.055 1.023,-0.356 1.023,-0.882 0,-0.526 -0.367,-0.844 -1.022,-0.907 v -0.326 h -0.486 v 0.326 c -0.663,0.06 -1.03,0.381 -1.03,0.907 0,0.523 0.364,0.823 1.03,0.878 v 0.349 z m -1.037,-1.23 c 0,-0.337 0.215,-0.523 0.552,-0.578 v 1.145 c -0.326,-0.052 -0.552,-0.219 -0.552,-0.567 z m 1.582,0.003 c 0,0.349 -0.226,0.512 -0.544,0.564 v -1.145 c 0.333,0.06 0.544,0.244 0.544,0.581 z"
         fill="#222222"
         id="path1674" />
      <path
         d="m 7.108,20.312 4.09,1.095 2.992,-2.993 2.994,2.993 4.089,-1.095 -1.095,-4.09 -4.09,-1.095 1.096,-4.09 -5.987,-5.986 -4.089,1.095 1.096,4.09 -2.993,2.993 2.993,2.994 z"
         fill="none"
         stroke="#222222"
         stroke-linejoin="bevel"
         stroke-width="0.265"
         id="path1676" />
      <g
         fill="none"
         stroke="#222222"
         stroke-width="0.265"
         id="g1682">
        <path
           d="m 3.832,12.549 -0.118,0.68 0.68,-0.119"
           id="path1678" />
        <path
           d="M 11.513,3.87 5.812,5.399 7.022,9.92 3.713,13.23"
           stroke-linejoin="bevel"
           id="path1680" />
      </g>
    </g>
    <g
       id="g1767"
       transform="matrix(1.8963352,0,0,1.8955473,83.682604,72.754112)">
      <g
         fill="#222222"
         stroke="#222222"
         stroke-width="0.265"
         id="g1716">
        <circle
           cx="4.98"
           cy="14.023"
           r="0.26499999"
           id="circle1704" />
        <circle
           cx="15.979"
           cy="23.548"
           r="0.26499999"
           id="circle1706" />
        <circle
           cx="21.478001"
           cy="17.198"
           r="0.26499999"
           id="circle1708" />
        <circle
           cx="21.478001"
           cy="7.6729999"
           r="0.26499999"
           id="circle1710" />
        <circle
           cx="13.229"
           cy="2.9100001"
           r="0.26499999"
           id="circle1712" />
        <circle
           cx="7.73"
           cy="9.2600002"
           r="0.26499999"
           id="circle1714" />
      </g>
      <path
         d="M 16.56,20.484 V 20.18 h -1.159 v 0.304 z m 0.074,-0.69 v -0.3 h -1.307 v 0.3 z m 0.04,1.457 v -0.304 h -1.39 v 0.304 z"
         fill="#222222"
         id="path1718" />
      <path
         d="m 7.899,16.489 v -0.437 c 0.476,-0.037 0.648,-0.238 0.648,-0.6 v -0.72 h -0.36 v 0.688 c 0,0.188 -0.076,0.307 -0.288,0.344 V 14.732 H 7.558 v 1.032 C 7.346,15.727 7.266,15.61 7.266,15.423 V 14.732 H 6.912 v 0.725 c 0,0.362 0.159,0.56 0.646,0.595 v 0.437 z m 1.097,0.026 V 15.637 H 8.856 C 8.846,15.74 8.796,15.79 8.645,15.79 v 0.12 h 0.18 v 0.605 z"
         fill="#222222"
         id="path1720" />
      <path
         d="M 18.898,6.964 V 6.528 c 0.476,-0.037 0.648,-0.238 0.648,-0.6 v -0.72 h -0.36 v 0.687 c 0,0.188 -0.076,0.307 -0.288,0.344 V 5.207 H 18.557 V 6.239 C 18.345,6.202 18.266,6.086 18.266,5.898 V 5.208 H 17.91 v 0.724 c 0,0.363 0.159,0.561 0.646,0.596 v 0.436 z m 1.066,-0.082 c -0.082,0 -0.124,-0.087 -0.124,-0.33 0,-0.244 0.042,-0.331 0.124,-0.331 0.085,0 0.125,0.09 0.125,0.333 0,0.238 -0.04,0.328 -0.125,0.328 z m -0.005,0.14 c 0.19,0 0.304,-0.15 0.304,-0.476 0,-0.328 -0.114,-0.463 -0.304,-0.463 -0.188,0 -0.299,0.135 -0.299,0.466 0,0.33 0.111,0.473 0.299,0.473 z"
         fill="#222222"
         id="path1722" />
      <path
         d="M 13.405,6.964 V 6.718 c 0.471,-0.04 0.73,-0.254 0.73,-0.63 0,-0.376 -0.261,-0.603 -0.73,-0.648 V 5.207 H 13.059 V 5.44 c -0.474,0.042 -0.736,0.272 -0.736,0.648 0,0.373 0.26,0.587 0.736,0.627 v 0.249 z m -0.74,-0.879 c 0,-0.24 0.153,-0.373 0.394,-0.413 V 6.49 C 12.826,6.453 12.664,6.334 12.664,6.085 Z m 1.13,0.003 c 0,0.249 -0.162,0.365 -0.39,0.402 V 5.672 c 0.238,0.043 0.39,0.175 0.39,0.416 z m 0.743,0.794 c -0.082,0 -0.125,-0.088 -0.125,-0.331 0,-0.244 0.043,-0.33 0.125,-0.33 0.084,0 0.124,0.09 0.124,0.332 0,0.239 -0.04,0.329 -0.124,0.329 z m -0.006,0.14 c 0.19,0 0.305,-0.151 0.305,-0.476 0,-0.329 -0.114,-0.463 -0.305,-0.463 -0.187,0 -0.299,0.134 -0.299,0.465 0,0.33 0.112,0.474 0.3,0.474 z"
         fill="#222222"
         id="path1724" />
      <path
         d="m 18.904,16.489 v -0.246 c 0.471,-0.04 0.73,-0.254 0.73,-0.63 0,-0.375 -0.261,-0.603 -0.73,-0.648 v -0.233 h -0.346 v 0.233 c -0.474,0.043 -0.736,0.273 -0.736,0.649 0,0.373 0.26,0.587 0.736,0.627 v 0.248 z m -0.74,-0.878 c 0,-0.24 0.153,-0.373 0.394,-0.413 v 0.818 C 18.325,15.979 18.163,15.86 18.163,15.611 Z m 1.13,0.003 c 0,0.248 -0.162,0.365 -0.39,0.402 v -0.818 c 0.238,0.042 0.39,0.175 0.39,0.416 z m 0.774,0.902 v -0.879 h -0.14 c -0.01,0.104 -0.06,0.154 -0.212,0.154 v 0.119 h 0.18 v 0.606 z"
         fill="#222222"
         id="path1726" />
      <path
         d="m 9.862,9.969 v 1.757 h 0.359 v -1.458 h 0.876 V 9.969 Z m 5.912,0.871 -0.481,0.582 v 0.304 h 1.373 v -0.304 h -0.945 l 0.474,-0.587 -0.47,-0.567 h 0.904 V 9.97 H 15.29 v 0.28 z m -1.709,5.649 -0.62,-1.757 H 13.02 l -0.627,1.757 z m -0.839,-1.363 h 0.003 l 0.338,1.061 H 12.88 Z"
         fill="#222222"
         id="path1728" />
      <path
         d="m 10.48,17.198 v -3.175 m 2.749,-1.588 -2.75,1.588 m -2.749,-1.588 2.75,1.588 m 2.75,-1.588 V 9.26 M 15.979,7.673 13.229,9.26 M 10.48,7.673 13.23,9.26 m 2.749,7.938 v -3.175 m 2.75,-1.588 -2.75,1.588 m -2.749,-1.588 2.749,1.588 m 0,3.175 2.75,1.587 m -2.75,-1.587 -2.75,1.587 M 15.979,7.673 V 4.498 m 0,3.175 2.75,1.587"
         fill="none"
         stroke="#222222"
         stroke-dasharray="0.26458, 0.79374"
         stroke-dashoffset="0.132"
         stroke-linecap="square"
         stroke-width="0.265"
         id="path1730" />
      <path
         d="m 4.98,17.198 2.75,1.587 2.75,-1.587 2.75,1.587 v 3.175 l 2.749,1.588 2.75,-1.588 v -3.175 l 2.75,-1.587 v -3.175 l -2.75,-1.588 V 9.26 l 2.75,-1.587 V 4.498 l -2.75,-1.587 -2.75,1.587 -2.75,-1.587 -2.75,1.587 0.001,3.175 -2.75,1.588 v 3.174 l -2.75,1.588 z"
         fill="none"
         stroke="#222222"
         stroke-linejoin="bevel"
         stroke-width="0.265"
         id="path1732" />
      <path
         d="M 8.815,9.093 8.525,9.719 9.212,9.78 M 10.48,8.59 8.524,9.719 m 8.54,4.136 -0.29,0.626 0.687,0.061 m 1.268,-1.19 -1.956,1.129 m -3.147,-3.068 0.397,0.564 0.397,-0.564 M 14.023,9.72 v 2.258 M 16.375,6.65 16.772,7.215 17.169,6.65 M 16.772,4.957 V 7.215 M 12.542,8.406 13.23,8.344 12.939,7.718 m -1.665,-0.503 1.956,1.13 m -3.148,6.701 -0.397,-0.565 -0.397,0.565 m 0.397,1.694 v -2.26 m 4.231,-1.19 -0.687,0.062 0.29,0.626 m 1.665,0.502 -1.956,-1.128 m 3.438,4.7 -0.688,0.062 0.29,0.626 m 1.666,0.503 -1.956,-1.13"
         fill="none"
         stroke="#222222"
         stroke-width="0.265"
         id="path1734" />
      <g
         fill="none"
         stroke="#222222"
         stroke-width="0.265"
         id="g1740">
        <path
           d="M 7.333,9.367 6.936,8.802 6.539,9.367"
           id="path1736" />
        <path
           d="m 4.186,13.564 2.75,-1.587 V 8.802"
           stroke-linejoin="bevel"
           id="path1738" />
      </g>
    </g>
    <g
       id="g1805"
       transform="matrix(1.8940684,0,0,1.895566,39.587907,-1.3294174)">
      <g
         fill="#222222"
         stroke="#222222"
         stroke-width="0.265"
         id="g1781">
        <circle
           cx="4.98"
           cy="17.198"
           r="0.26499999"
           id="circle1769" />
        <circle
           cx="15.979"
           cy="23.548"
           r="0.26499999"
           id="circle1771" />
        <circle
           cx="21.478001"
           cy="17.198"
           r="0.26499999"
           id="circle1773" />
        <circle
           cx="21.478001"
           cy="7.6729999"
           r="0.26499999"
           id="circle1775" />
        <circle
           cx="18.729"
           cy="2.9100001"
           r="0.26499999"
           id="circle1777" />
        <circle
           cx="7.73"
           cy="9.2600002"
           r="0.26499999"
           id="circle1779" />
      </g>
      <path
         d="m 10.48,17.198 v -3.175 m 2.749,-1.588 -2.75,1.588 m -2.749,-1.588 2.75,1.588 m 2.75,-1.588 V 9.26 M 15.979,7.673 13.229,9.26 M 10.48,7.673 13.23,9.26 m 2.749,7.938 v -3.175 m 2.75,-1.588 -2.75,1.588 m -2.749,-1.588 2.749,1.588 m 0,3.175 2.75,1.587 m -2.75,-1.587 -2.75,1.587 M 15.979,7.673 V 4.498 m 0,3.175 2.75,1.587"
         fill="none"
         stroke="#222222"
         stroke-dasharray="0.26458, 0.79374"
         stroke-dashoffset="0.132"
         stroke-linecap="square"
         stroke-width="0.265"
         id="path1783" />
      <path
         d="M 13.405,6.964 V 6.718 c 0.471,-0.04 0.73,-0.254 0.73,-0.63 0,-0.376 -0.261,-0.603 -0.73,-0.648 V 5.207 H 13.059 V 5.44 c -0.474,0.042 -0.736,0.272 -0.736,0.648 0,0.373 0.26,0.587 0.736,0.627 v 0.249 z m -0.74,-0.879 c 0,-0.24 0.153,-0.373 0.394,-0.413 V 6.49 C 12.826,6.453 12.664,6.334 12.664,6.085 Z m 1.13,0.003 c 0,0.249 -0.162,0.365 -0.39,0.402 V 5.672 c 0.238,0.043 0.39,0.175 0.39,0.416 z m 0.743,0.794 c -0.082,0 -0.125,-0.088 -0.125,-0.331 0,-0.244 0.043,-0.33 0.125,-0.33 0.084,0 0.124,0.09 0.124,0.332 0,0.239 -0.04,0.329 -0.124,0.329 z m -0.006,0.14 c 0.19,0 0.305,-0.151 0.305,-0.476 0,-0.329 -0.114,-0.463 -0.305,-0.463 -0.187,0 -0.299,0.134 -0.299,0.465 0,0.33 0.112,0.474 0.3,0.474 z"
         fill="#222222"
         id="path1785" />
      <path
         d="m 18.904,16.489 v -0.246 c 0.471,-0.04 0.73,-0.254 0.73,-0.63 0,-0.375 -0.261,-0.603 -0.73,-0.648 v -0.233 h -0.346 v 0.233 c -0.474,0.043 -0.736,0.273 -0.736,0.649 0,0.373 0.26,0.587 0.736,0.627 v 0.248 z m -0.74,-0.878 c 0,-0.24 0.153,-0.373 0.394,-0.413 v 0.818 C 18.325,15.979 18.163,15.86 18.163,15.611 Z m 1.13,0.003 c 0,0.248 -0.162,0.365 -0.39,0.402 v -0.818 c 0.238,0.042 0.39,0.175 0.39,0.416 z m 0.774,0.902 v -0.879 h -0.14 c -0.01,0.104 -0.06,0.154 -0.212,0.154 v 0.119 h 0.18 v 0.606 z"
         fill="#222222"
         id="path1787" />
      <path
         d="M 8.311,15.722 V 15.418 H 7.152 v 0.304 z m 0.074,-0.69 v -0.3 H 7.078 v 0.3 z m 0.04,1.457 v -0.304 h -1.39 v 0.304 z M 8.8,16.407 c -0.082,0 -0.124,-0.087 -0.124,-0.33 0,-0.244 0.042,-0.331 0.124,-0.331 0.085,0 0.125,0.09 0.125,0.333 0,0.238 -0.04,0.328 -0.125,0.328 z m -0.005,0.14 c 0.19,0 0.304,-0.15 0.304,-0.476 0,-0.328 -0.113,-0.463 -0.304,-0.463 -0.188,0 -0.299,0.135 -0.299,0.466 0,0.33 0.111,0.473 0.3,0.473 z"
         fill="#222222"
         id="path1789" />
      <path
         d="M 16.559,20.484 V 20.178 H 15.4 v 0.305 z m 0.074,-0.69 v -0.3 h -1.306 v 0.3 z m 0.04,1.457 v -0.304 h -1.39 v 0.304 z m 0.407,0.027 v -0.879 h -0.14 c -0.01,0.103 -0.06,0.153 -0.212,0.153 v 0.12 h 0.18 v 0.605 z"
         fill="#222222"
         id="path1791" />
      <path
         d="M 19.44,6.964 V 5.206 h -1.422 v 1.757 h 0.36 V 5.506 h 0.699 V 6.964 Z M 9.862,9.969 v 1.757 h 0.359 v -1.458 h 0.876 V 9.969 Z m 5.912,0.871 -0.481,0.582 v 0.304 h 1.373 v -0.304 h -0.945 l 0.474,-0.587 -0.47,-0.567 h 0.904 V 9.97 H 15.29 v 0.28 z m -1.709,5.649 -0.62,-1.757 H 13.02 l -0.627,1.757 z m -0.839,-1.363 h 0.003 l 0.338,1.061 H 12.88 Z"
         fill="#222222"
         id="path1793" />
      <path
         d="m 4.98,17.198 2.75,1.587 2.75,-1.587 2.749,1.587 v 3.175 l 2.75,1.588 2.75,-1.588 v -3.175 l 2.75,-1.587 v -3.175 l -2.75,-1.588 V 9.26 l 2.75,-1.587 V 4.498 l -2.75,-1.587 -2.75,1.587 -2.75,-1.587 -2.75,1.587 0.001,3.175 -2.75,1.588 v 3.174 l -2.75,1.588 z"
         fill="none"
         stroke="#222222"
         stroke-linejoin="bevel"
         stroke-width="0.265"
         id="path1795" />
      <g
         fill="none"
         stroke="#222222"
         stroke-width="0.265"
         id="g1801">
        <path
           d="M 7.334,9.367 6.937,8.802 6.54,9.367"
           id="path1797" />
        <path
           d="m 4.187,17.656 v -4.092 l 2.75,-1.588 V 8.802"
           stroke-linejoin="bevel"
           id="path1799" />
      </g>
      <path
         d="M 8.814,9.092 8.524,9.718 9.211,9.78 M 10.479,8.59 8.523,9.718 m 8.54,4.136 -0.29,0.626 0.687,0.062 m 1.268,-1.191 -1.956,1.13 m -3.146,-3.068 0.397,0.564 0.397,-0.564 M 14.023,9.72 v 2.258 M 16.375,6.65 16.772,7.215 17.169,6.65 M 16.772,4.957 V 7.215 M 12.54,8.404 13.228,8.343 12.938,7.717 m -1.665,-0.503 1.956,1.13 m -3.147,6.702 -0.397,-0.565 -0.397,0.565 m 0.397,1.694 v -2.26 m 4.231,-1.19 -0.688,0.06 0.291,0.627 m 1.665,0.503 -1.956,-1.13 m 3.438,4.702 -0.688,0.062 0.29,0.626 m 1.666,0.503 -1.956,-1.13"
         fill="none"
         stroke="#222222"
         stroke-width="0.265"
         id="path1803" />
    </g>
  </g>
</svg>
